<svg width="15" height="15" viewBox="0 0 20 21" fill="none" xmlns="http://www.w3.org/2000/svg">
<path d="M10 8.5C10.4596 8.5 10.9148 8.40947 11.3394 8.23358C11.764 8.05769 12.1499 7.79988 12.4749 7.47487C12.7999 7.14987 13.0577 6.76403 13.2336 6.33939C13.4095 5.91475 13.5 5.45963 13.5 5C13.5 4.54037 13.4095 4.08525 13.2336 3.66061C13.0577 3.23597 12.7999 2.85013 12.4749 2.52513C12.1499 2.20012 11.764 1.94231 11.3394 1.76642C10.9148 1.59053 10.4596 1.5 10 1.5C9.07174 1.5 8.1815 1.86875 7.52513 2.52513C6.86875 3.1815 6.5 4.07174 6.5 5C6.5 5.92826 6.86875 6.8185 7.52513 7.47487C8.1815 8.13125 9.07174 8.5 10 8.5ZM1 18.9V19.5H19V18.9C19 16.66 19 15.54 18.564 14.684C18.1805 13.9314 17.5686 13.3195 16.816 12.936C15.96 12.5 14.84 12.5 12.6 12.5H7.4C5.16 12.5 4.04 12.5 3.184 12.936C2.43139 13.3195 1.81949 13.9314 1.436 14.684C1 15.54 1 16.66 1 18.9Z" fill="black" stroke="black" stroke-width="2" stroke-linecap="round" stroke-linejoin="round"/>
</svg>
