<svg width="45" height="45" viewBox="0 0 45 45" fill="none" xmlns="http://www.w3.org/2000/svg">
<path fill-rule="evenodd" clip-rule="evenodd" d="M0 22.5C0 10.0736 10.0736 0 22.5 0C34.9265 0 45 10.0736 45 22.5C45 34.9265 34.9265 45 22.5 45C10.0736 45 0 34.9265 0 22.5ZM22.5 3.13953C11.8075 3.13953 3.13953 11.8075 3.13953 22.5C3.13953 27.828 5.29173 32.6533 8.77416 36.1538C9.15174 34.1171 9.8936 32.1968 11.3826 30.6525C13.6099 28.3427 17.1715 27.2093 22.5 27.2093C27.8282 27.2093 31.3899 28.3427 33.6171 30.6525C35.1063 32.1968 35.848 34.1173 36.2256 36.154C39.7082 32.6535 41.8605 27.828 41.8605 22.5C41.8605 11.8075 33.1924 3.13953 22.5 3.13953ZM33.3705 38.5229C33.1573 35.9864 32.6064 34.1274 31.3573 32.8318C29.9978 31.4221 27.4791 30.3488 22.5 30.3488C17.5207 30.3488 15.002 31.4221 13.6426 32.8318C12.3934 34.1274 11.8426 35.9862 11.6293 38.5227C14.7283 40.6293 18.4703 41.8605 22.5 41.8605C26.5295 41.8605 30.2716 40.6293 33.3705 38.5229Z" fill="white"/>
<path fill-rule="evenodd" clip-rule="evenodd" d="M15.0703 14.1281C15.0703 9.79334 18.5844 6.2793 22.9191 6.2793C27.254 6.2793 30.768 9.79334 30.768 14.1281C30.768 18.463 27.254 21.977 22.9191 21.977C18.5844 21.977 15.0703 18.463 15.0703 14.1281ZM22.9191 9.41883C20.3184 9.41883 18.2098 11.5273 18.2098 14.1281C18.2098 16.7289 20.3184 18.8374 22.9191 18.8374C25.5199 18.8374 27.6285 16.7289 27.6285 14.1281C27.6285 11.5273 25.5199 9.41883 22.9191 9.41883Z" fill="white"/>
</svg>
