<svg width="45" height="45" viewBox="0 0 45 45" fill="none" xmlns="http://www.w3.org/2000/svg">
<g clip-path="url(#clip0_221_3345)">
<path fill-rule="evenodd" clip-rule="evenodd" d="M18.3907 25.07L35.2998 41.7361C36.2423 42.6649 37.7809 42.6649 38.7259 41.7361L42.014 38.4927C42.4722 38.0411 42.7247 37.4432 42.7247 36.8068C42.7247 36.1679 42.4722 35.57 42.014 35.1184L25.3991 18.7423L25.6725 17.9776C27.1824 13.79 26.1072 9.06085 22.9311 5.93035C19.9892 3.03336 15.6754 1.9223 11.7156 2.92301L18.1903 9.30462C18.9635 10.0641 19.3879 11.0777 19.3879 12.158C19.3879 13.2357 18.9635 14.2493 18.1903 15.0114L15.5583 17.6056C13.9598 19.1759 11.3642 19.1759 9.76829 17.6056L3.29366 11.224C2.28092 15.1268 3.40558 19.3787 6.34484 22.2782C9.28667 25.1778 13.6265 26.3171 17.6644 25.2599L18.3907 25.07ZM37.0103 45C35.7242 45 34.4381 44.515 33.4592 43.5502L17.5941 27.9131C12.882 28.8908 7.9225 27.4615 4.50423 24.0924C0.338797 19.9868 -0.84315 13.6591 1.55979 8.35008L2.33038 6.64627L11.6089 15.7914C12.1895 16.3611 13.1371 16.3611 13.7176 15.7914L16.3497 13.1972C16.6309 12.9175 16.7845 12.5506 16.7845 12.158C16.7845 11.7654 16.6308 11.3959 16.3497 11.1188L7.07118 1.97361L8.79984 1.21407C14.1889 -1.15434 20.6089 0.010624 24.7717 4.11364C28.4581 7.74964 29.8327 13.1408 28.3826 18.0546L43.8546 33.3042C44.8048 34.2383 45.3281 35.4828 45.3281 36.8068C45.3281 38.1283 44.8048 39.3728 43.8546 40.3068L40.5665 43.5502C39.585 44.515 38.2989 45 37.0103 45Z" fill="white"/>
</g>
<defs>
<clipPath id="clip0_221_3345">
<rect width="45" height="45" fill="white"/>
</clipPath>
</defs>
</svg> 