<svg width="30" height="30" viewBox="0 0 61 60" fill="none" xmlns="http://www.w3.org/2000/svg">
<path d="M38.5438 23.5714C40.6148 23.5714 42.2938 25.2504 42.2938 27.3214V41.7835C42.2938 48.2938 37.0161 53.5714 30.5058 53.5714C23.9955 53.5714 18.7179 48.2938 18.7179 41.7835V27.3214C18.7179 25.2504 20.3968 23.5714 22.4679 23.5714H38.5438ZM8.53516 23.5714L17.9254 23.5673C17.1756 24.4735 16.6918 25.6078 16.5935 26.8506L16.575 27.3214V41.7835C16.575 44.2122 17.1965 46.4957 18.2892 48.4837C17.1084 48.9991 15.803 49.2857 14.4307 49.2857C9.1036 49.2857 4.78516 44.9673 4.78516 39.6402V27.3214C4.78516 25.2504 6.46409 23.5714 8.53516 23.5714ZM43.0862 23.5673L52.4637 23.5714C54.5348 23.5714 56.2137 25.2504 56.2137 27.3214V39.6429C56.2137 44.9685 51.8965 49.2857 46.5709 49.2857C45.2014 49.2857 43.8987 49.0003 42.7188 48.4856L42.8382 48.2687C43.7568 46.5254 44.3167 44.5637 44.4194 42.4818L44.4366 41.7835V27.3214C44.4366 25.8949 43.9297 24.5868 43.0862 23.5673ZM30.4994 6.42859C34.6416 6.42859 37.9994 9.78645 37.9994 13.9286C37.9994 18.0707 34.6416 21.4286 30.4994 21.4286C26.3573 21.4286 22.9994 18.0707 22.9994 13.9286C22.9994 9.78645 26.3573 6.42859 30.4994 6.42859ZM47.6487 8.57145C51.1991 8.57145 54.0773 11.4496 54.0773 15C54.0773 18.5504 51.1991 21.4286 47.6487 21.4286C44.0983 21.4286 41.2201 18.5504 41.2201 15C41.2201 11.4496 44.0983 8.57145 47.6487 8.57145ZM13.3502 8.57145C16.9006 8.57145 19.7788 11.4496 19.7788 15C19.7788 18.5504 16.9006 21.4286 13.3502 21.4286C9.79979 21.4286 6.92162 18.5504 6.92162 15C6.92162 11.4496 9.79979 8.57145 13.3502 8.57145Z" fill="#212121"/>
</svg>
