<svg width="30" height="30" viewBox="0 0 30 30" fill="none" xmlns="http://www.w3.org/2000/svg">
<path d="M10.0374 20.6282C10.6767 20.6282 11.3049 20.5661 11.9173 20.4484C10.5878 19.3588 9.49555 17.9639 8.75496 16.3363C8.52815 16.2847 8.30394 16.2206 8.08236 16.1415C5.05464 15.0643 3.46757 11.7235 4.54545 8.69446C5.37166 6.37596 7.57904 4.81766 10.0381 4.81766C10.7015 4.81766 11.3591 4.93205 11.9925 5.15756C15.0209 6.23608 16.6079 9.57624 15.5294 12.6046C15.4477 12.834 15.3523 13.055 15.2451 13.2694C15.247 13.2746 15.249 13.2805 15.2516 13.2864C15.849 14.6636 17.1086 15.6068 18.5637 15.8278C18.9114 15.2558 19.2049 14.6434 19.4356 13.9969C21.2802 8.81408 18.565 3.0979 13.3835 1.25264C12.303 0.868293 11.1767 0.672852 10.0381 0.672852C5.82922 0.672852 2.05242 3.33844 0.639877 7.3048C-0.999481 11.9098 0.962127 16.937 5.05595 19.2941L3.83297 22.729L3.41724 21.8518C2.99172 20.957 1.92169 20.5752 1.02619 21.0001C0.130682 21.425 -0.250397 22.4963 0.175131 23.3912L2.50801 28.3027C2.81523 28.9498 3.45842 29.3276 4.12972 29.3276C4.38792 29.3276 4.64938 29.2721 4.89842 29.1538L9.56484 26.9372C10.4603 26.5124 10.8414 25.441 10.4165 24.5468C9.99167 23.6507 8.92164 23.2696 8.02614 23.6958L7.14959 24.1121L8.43664 20.4968C8.96479 20.5837 9.50078 20.6282 10.0374 20.6282Z" fill="black"/>
<path d="M29.8514 21.6955C29.4573 20.7856 28.4023 20.3699 27.493 20.7621L25.5177 21.6184L24.7555 19.8607C26.4315 18.7449 27.7303 17.1533 28.4872 15.2426C29.4677 12.7653 29.4252 10.054 28.365 7.6093C26.7832 3.95539 23.1881 1.5957 19.2067 1.5957C18.4432 1.5957 17.8602 1.65388 17.1235 1.82579C18.5707 2.74678 19.6152 4.01879 20.3414 5.8634C22.2514 6.19872 23.7705 7.43739 24.5595 9.25715C25.1778 10.686 25.2026 12.2698 24.6307 13.7183C24.0574 15.1662 22.956 16.3048 21.5259 16.9232C20.7866 17.2422 20.0094 17.4043 19.2139 17.4043C18.8675 17.4043 18.5256 17.3735 18.1929 17.3141C16.2868 16.9761 14.6481 15.7067 13.8611 13.8896C13.2657 12.5143 13.2206 10.9959 13.7278 9.59313C13.7474 9.53822 13.7683 9.48332 13.7899 9.42776C13.9036 9.14146 14.0429 8.8715 14.1958 8.61069C13.5075 7.44131 12.4427 6.55692 11.1485 6.0961C11.072 6.0693 10.9936 6.05688 10.9171 6.034C10.5301 6.61509 10.1974 7.23802 9.9353 7.90213C9.92158 7.93678 9.90916 7.97077 9.89543 8.00476C8.95679 10.4553 9.013 13.1248 10.0569 15.5361C11.2433 18.2756 13.5618 20.2882 16.3254 21.1229C17.2471 21.4014 18.2184 21.5491 19.2145 21.5491C19.976 21.5491 20.7258 21.4536 21.4605 21.2824L22.224 23.0427L20.248 23.8996C19.3387 24.2931 18.9211 25.3494 19.3146 26.2586C19.6067 26.9365 20.2682 27.3398 20.9624 27.3398C21.2003 27.3398 21.4415 27.2927 21.6742 27.1914L23.6489 26.3358L24.379 28.0189C24.6712 28.6961 25.3314 29.1007 26.0262 29.1007C26.2635 29.1007 26.506 29.053 26.7381 28.9523C27.648 28.5582 28.0656 27.5019 27.6721 26.5933L26.942 24.9095L28.9187 24.0539C29.8285 23.661 30.2462 22.6054 29.8514 21.6955Z" fill="black"/>
</svg>
