<svg width="30" height="30" viewBox="0 0 61 61" fill="none" xmlns="http://www.w3.org/2000/svg">
<path fill-rule="evenodd" clip-rule="evenodd" d="M28.6992 16.564L26.5342 14.3992C22.5605 15.3755 19.14 17.7594 16.8317 20.992L17.6769 24.1462L22.8495 26.1838L28.6992 22.2841V16.564ZM13.6992 30.7876C13.6992 29.9456 13.7609 29.1178 13.88 28.3088L16.3395 27.6498L21.398 29.6426L22.7234 37.6431L19.4885 40.8781H17.0471C14.9443 38.0636 13.6992 34.5711 13.6992 30.7876ZM22.6302 45.6796C24.9976 46.9451 27.7022 47.6626 30.5742 47.6626C33.665 47.6626 36.5617 46.8316 39.053 45.3811V43.5746L35.641 40.1626H25.5073L22.6302 43.0398V45.6796ZM41.9227 41.1411H43.9007C46.1247 38.2826 47.4492 34.6898 47.4492 30.7876C47.4492 30.2226 47.4215 29.6643 47.3672 29.1136L44.8225 27.6443L39.7502 29.6426L38.4247 37.6431L41.9227 41.1411ZM44.6062 21.4104C42.2992 17.9654 38.7577 15.4173 34.6142 14.3993L32.4492 16.5645V22.2841L38.2987 26.1838L42.8957 24.373L44.6062 21.4104ZM9.94922 30.7876C9.94922 19.3967 19.1833 10.1626 30.5742 10.1626C41.965 10.1626 51.1992 19.3967 51.1992 30.7876C51.1992 42.1783 41.965 51.4126 30.5742 51.4126C19.1833 51.4126 9.94922 42.1783 9.94922 30.7876ZM25.1218 29.1758L26.3207 36.4126H34.8275L36.0265 29.1758L30.5742 25.5411L25.1218 29.1758Z" fill="#080341"/>
</svg>
