<svg width="30" height="29" viewBox="0 0 61 61" fill="none" xmlns="http://www.w3.org/2000/svg">
<path d="M30.5 43V28" stroke="#1C274C" stroke-width="3.75" stroke-linecap="round"/>
<path d="M30.5 18C31.8807 18 33 19.1193 33 20.5C33 21.8807 31.8807 23 30.5 23C29.1193 23 28 21.8807 28 20.5C28 19.1193 29.1193 18 30.5 18Z" fill="#1C274C"/>
<path d="M18 8.84455C21.6772 6.71743 25.9465 5.5 30.5 5.5C44.307 5.5 55.5 16.6929 55.5 30.5C55.5 44.307 44.307 55.5 30.5 55.5C16.6929 55.5 5.5 44.307 5.5 30.5C5.5 25.9465 6.71743 21.6772 8.84455 18" stroke="#1C274C" stroke-width="3.75" stroke-linecap="round"/>
</svg>
