<svg width="24" height="31" viewBox="0 0 24 31" fill="none" xmlns="http://www.w3.org/2000/svg">
<path d="M12.1069 0.989258C5.95781 0.989258 0.75 6.22707 0.75 12.4305C0.75 18.9274 6.78656 25.5714 10.8469 30.2411C10.8628 30.2599 11.5191 30.9883 12.3272 30.9883H12.3984C13.2075 30.9883 13.8591 30.2599 13.875 30.2411C17.685 25.8611 23.25 18.6377 23.25 12.4305C23.25 6.22613 19.1878 0.989258 12.1069 0.989258ZM12.4828 28.983C12.45 29.0158 12.4022 29.0524 12.36 29.0833C12.3169 29.0533 12.27 29.0158 12.2353 28.983L11.745 28.4186C7.89562 24.003 2.62406 17.9552 2.62406 12.4296C2.62406 7.24332 6.96656 2.86238 12.1059 2.86238C18.5081 2.86238 21.3741 7.66707 21.3741 12.4296C21.3741 16.6239 18.3825 22.1946 12.4828 28.983ZM12.0328 6.66582C8.92688 6.66582 6.40781 9.18394 6.40781 12.2908C6.40781 15.3977 8.92688 17.9158 12.0328 17.9158C15.1388 17.9158 17.6578 15.3968 17.6578 12.2908C17.6578 9.18488 15.1397 6.66582 12.0328 6.66582ZM12.0328 16.0408C9.96469 16.0408 8.23969 14.3177 8.23969 12.2496C8.23969 10.1814 9.92156 8.49957 11.9897 8.49957C14.0588 8.49957 15.7397 10.1814 15.7397 12.2496C15.7406 14.3177 14.1019 16.0408 12.0328 16.0408Z" fill="black"/>
</svg>
