<svg width="30" height="30" viewBox="0 0 60 60" fill="none" xmlns="http://www.w3.org/2000/svg">
<path fill-rule="evenodd" clip-rule="evenodd" d="M27.5437 47.5C26.6502 47.5 25.888 46.8367 25.7425 45.9325C25.6085 45.201 25.095 44.6033 24.4043 44.375C23.8415 44.1767 23.2911 43.943 22.7565 43.675C22.1204 43.3412 21.3572 43.3912 20.7675 43.805C20.0539 44.3312 19.0736 44.2497 18.4519 43.6125L16.0339 41.1325C15.3831 40.465 15.2986 39.4128 15.834 38.645C16.2469 38.0263 16.3064 37.2285 15.99 36.5525C15.7815 36.083 15.5976 35.6023 15.4391 35.1125C15.2121 34.3408 14.5855 33.7627 13.8133 33.6125C12.8822 33.46 12.1947 32.6397 12.1875 31.6725V28.57C12.1826 27.4553 12.9676 26.5017 14.04 26.32C14.8536 26.1612 15.5329 25.5897 15.8438 24.8025C15.9364 24.5808 16.0339 24.3608 16.1363 24.1425C16.5497 23.3261 16.4926 22.3428 15.9876 21.5825C15.356 20.6822 15.453 19.4452 16.2167 18.66L17.9936 16.8375C18.87 15.9383 20.2522 15.8219 21.2599 16.5625L21.3159 16.6025C22.0684 17.1219 23.0258 17.216 23.8607 16.8525C24.7539 16.5228 25.4123 15.7356 25.5938 14.78L25.6183 14.695C25.8188 13.4299 26.884 12.5005 28.1337 12.5H30.2787C31.562 12.4994 32.6572 13.4514 32.8672 14.75L32.9062 14.925C33.0785 15.8404 33.7027 16.5981 34.554 16.925C35.3745 17.2862 36.318 17.1919 37.055 16.675L37.1767 16.585C38.2105 15.8208 39.632 15.9384 40.5333 16.8625L42.1687 18.5425C42.9885 19.3879 43.0915 20.7173 42.4125 21.685C41.8805 22.4938 41.8128 23.5331 42.2345 24.4075L42.3395 24.6575C42.681 25.5112 43.4202 26.13 44.304 26.3025C45.4592 26.4957 46.3087 27.5173 46.3125 28.7175V31.5C46.3122 32.5585 45.5657 33.4615 44.5477 33.635C43.7105 33.7998 43.0285 34.4215 42.7707 35.255C42.657 35.5883 42.5302 35.9217 42.3905 36.255C42.0652 36.9875 42.1375 37.841 42.5808 38.505C43.1655 39.3395 43.0748 40.4858 42.3663 41.2125L40.097 43.5425C39.448 44.208 38.4245 44.2937 37.679 43.745C37.0565 43.3087 36.2502 43.2607 35.5827 43.62C35.107 43.8617 34.6187 44.0762 34.1202 44.2625C33.423 44.5092 32.909 45.1213 32.7747 45.865C32.6325 46.8008 31.8502 47.493 30.927 47.5H27.5437Z" stroke="black" stroke-width="3.75" stroke-linecap="round" stroke-linejoin="round"/>
<path fill-rule="evenodd" clip-rule="evenodd" d="M34.9368 30C34.9368 33.2213 32.3907 35.8325 29.25 35.8325C26.1093 35.8325 23.5633 33.2213 23.5633 30C23.5633 26.7788 26.1093 24.1675 29.25 24.1675C32.3907 24.1675 34.9368 26.7788 34.9368 30Z" stroke="black" stroke-width="3.75" stroke-linecap="round" stroke-linejoin="round"/>
</svg>
