<svg width="58" height="58" viewBox="0 0 58 58" fill="none" xmlns="http://www.w3.org/2000/svg">
<path d="M47.75 0.875H10.25C5.07219 0.875 0.875 5.07219 0.875 10.25V47.75C0.875 52.9278 5.07219 57.125 10.25 57.125H47.75C52.9278 57.125 57.125 52.9278 57.125 47.75V10.25C57.125 5.07219 52.9278 0.875 47.75 0.875ZM20.7781 40.5922H16.2059L8.375 17.4875H13.5444L18.5722 35.0281L23.6459 17.4875H28.6737L20.7781 40.5922ZM47.1716 39.0969C45.5366 40.4909 43.2256 41.1875 40.2388 41.1875C37.19 41.1875 34.7928 40.5013 33.0463 39.1278C31.2997 37.7525 30.4259 35.8644 30.4259 33.4606H35.0459C35.1941 34.5153 35.4894 35.3047 35.9263 35.8269C36.7278 36.7794 38.1031 37.2528 40.0494 37.2528C41.2137 37.2528 42.1606 37.1272 42.8891 36.8769C44.2681 36.3969 44.9581 35.5034 44.9581 34.1966C44.9581 33.4344 44.6197 32.8438 43.9437 32.4256C43.2678 32.0169 42.1953 31.6569 40.7281 31.3438L38.2212 30.7962C35.7566 30.2516 34.0644 29.6609 33.1419 29.0234C31.5819 27.9584 30.8019 26.2906 30.8019 24.0228C30.8019 21.9538 31.5641 20.2353 33.0903 18.8656C34.6175 17.4969 36.86 16.8125 39.8197 16.8125C42.29 16.8125 44.3975 17.4575 46.1403 18.7484C47.885 20.0384 48.7991 21.9125 48.8853 24.3678H44.2344C44.1481 22.9784 43.5256 21.9903 42.365 21.4053C41.5925 21.0191 40.6306 20.8241 39.4831 20.8241C38.2053 20.8241 37.1853 21.0763 36.4212 21.5778C35.6591 22.0794 35.2784 22.7806 35.2784 23.6778C35.2784 24.5037 35.6534 25.1206 36.4062 25.5294C36.89 25.8003 37.9147 26.1191 39.4822 26.4847L43.5472 27.4419C45.3266 27.86 46.6634 28.4187 47.5512 29.1191C48.935 30.2047 49.625 31.7769 49.625 33.8366C49.625 35.9478 48.8084 37.7 47.1716 39.0969Z" fill="black"/>
</svg>
