<?xml version="1.0" standalone="no"?>
<!DOCTYPE svg PUBLIC "-//W3C//DTD SVG 20010904//EN"
 "http://www.w3.org/TR/2001/REC-SVG-20010904/DTD/svg10.dtd">
<svg version="1.0" xmlns="http://www.w3.org/2000/svg"
 width="120.000000pt" height="125.000000pt" viewBox="0 0 217.000000 296.000000"
 preserveAspectRatio="xMidYMid meet">


<g transform="translate(0.000000,296.000000) scale(0.100000,-0.100000)"
fill="#ffffff" stroke="none">
<path d="M1303 2946 c-24 -6 -43 -16 -43 -23 0 -7 -6 -13 -14 -13 -23 0 -56
-68 -59 -121 -2 -27 -6 -52 -10 -55 -4 -4 -7 -16 -7 -26 0 -24 -42 -40 -74
-28 -27 10 -64 2 -114 -24 -30 -15 -34 -15 -63 0 -21 10 -42 14 -63 9 -79 -17
-202 -22 -231 -9 -16 7 -112 17 -213 23 -174 10 -184 10 -220 -9 -20 -11 -41
-20 -47 -20 -17 0 -89 -81 -106 -120 -50 -108 -47 -120 19 -85 26 14 52 25 59
25 6 0 14 9 18 19 3 11 18 22 34 26 20 4 33 18 49 50 12 25 27 45 33 45 18 0
123 -30 143 -41 42 -24 105 -43 166 -50 124 -14 160 -22 171 -35 6 -8 26 -14
43 -14 18 0 55 -7 83 -15 43 -13 57 -25 106 -86 59 -74 71 -115 47 -159 -13
-25 -20 -192 -9 -206 6 -7 0 -21 -16 -38 -13 -14 -22 -33 -19 -41 5 -11 -1
-15 -18 -15 -36 0 -81 -51 -73 -83 5 -20 2 -26 -15 -32 -18 -6 -21 -12 -17
-35 4 -20 1 -33 -13 -45 -10 -9 -21 -34 -25 -55 -8 -45 10 -119 31 -127 7 -3
14 -15 14 -27 0 -17 12 -28 48 -44 26 -12 58 -23 72 -24 23 -3 25 -7 23 -46
-1 -23 -13 -66 -26 -95 -13 -29 -35 -83 -48 -121 -20 -59 -31 -74 -71 -105
-45 -33 -48 -38 -48 -81 0 -65 -27 -104 -86 -124 -26 -9 -55 -16 -64 -16 -9 0
-24 -16 -33 -35 -9 -19 -21 -35 -26 -35 -6 0 -27 -28 -47 -62 -20 -35 -40 -66
-46 -69 -5 -3 -10 -16 -11 -27 -1 -12 -4 -22 -8 -22 -4 0 -10 -11 -13 -24 -8
-32 -90 -116 -114 -116 -10 0 -27 -9 -36 -19 -10 -11 -25 -17 -37 -14 -10 3
-43 -7 -73 -22 -56 -28 -77 -65 -54 -92 5 -7 7 -17 3 -24 -4 -6 -2 -15 5 -19
10 -6 10 -20 -2 -68 -14 -54 -14 -62 -1 -66 8 -4 13 -13 9 -21 -3 -9 1 -15 10
-15 12 0 15 -7 12 -25 -4 -18 -1 -25 10 -25 9 0 25 -9 37 -20 30 -28 53 -16
65 34 31 122 52 177 67 172 25 -10 53 12 53 43 0 25 29 110 30 88 0 -5 30 19
66 52 37 34 73 61 80 61 7 0 17 6 21 13 12 20 99 77 117 77 9 0 16 6 16 13 0
6 16 28 35 47 19 19 35 42 35 51 0 18 44 59 63 59 5 0 7 -9 4 -20 -4 -14 0
-20 13 -20 10 0 20 -9 23 -21 3 -12 10 -18 16 -15 6 4 22 -1 36 -10 23 -15 27
-15 49 0 24 15 24 16 9 63 -8 28 -13 71 -10 102 3 45 9 58 28 70 68 43 184
187 214 266 12 30 25 47 44 53 14 5 50 30 80 55 29 25 66 49 82 52 33 8 114
93 123 131 8 30 -22 87 -64 121 -20 16 -29 35 -33 68 -4 25 -13 59 -22 75 -8
16 -15 46 -15 67 1 32 6 42 35 63 19 14 37 32 41 40 11 28 34 121 34 141 0 11
13 32 29 47 17 15 34 45 40 67 5 22 19 72 30 110 11 39 23 82 26 97 4 20 13
29 33 34 15 3 43 12 62 19 37 14 123 13 174 0 31 -8 108 7 164 32 34 16 42 42
18 66 -8 8 -21 30 -29 49 -14 32 -23 39 -107 68 -115 42 -163 75 -185 132 -16
42 -78 98 -108 98 -7 0 -29 11 -49 25 -43 29 -51 30 -68 10 -10 -12 -8 -20 9
-41 12 -15 21 -32 21 -39 0 -7 7 -18 15 -25 27 -22 16 -30 -19 -13 -20 9 -42
13 -53 9 -16 -6 -13 -10 17 -29 60 -37 120 -89 114 -99 -4 -6 -11 -5 -17 1 -6
6 -21 11 -33 11 -13 0 -26 5 -29 10 -3 6 -28 10 -55 10 -27 0 -51 4 -54 9 -3
5 -2 37 3 72 5 40 4 75 -2 98 -13 42 -70 101 -101 102 -11 0 -32 1 -46 2 -14
1 -44 -2 -67 -7z"/>
<path d="M1263 500 c-45 -10 -77 -33 -110 -77 -15 -21 -32 -41 -37 -45 -15
-10 -20 -128 -7 -141 8 -8 12 -2 17 21 7 33 12 36 61 26 24 -5 33 -15 46 -52
15 -40 16 -47 3 -54 -8 -5 -22 -15 -30 -23 -13 -13 -19 -10 -50 27 -44 51 -57
46 -15 -6 29 -34 80 -65 136 -81 12 -3 41 -1 63 5 41 11 41 11 25 36 -16 24
-15 26 17 63 29 33 37 37 68 33 19 -3 38 -9 41 -14 17 -25 25 115 10 155 -13
34 -68 95 -102 113 -38 19 -36 7 4 -36 l32 -35 -23 -43 c-22 -39 -27 -42 -56
-37 -17 3 -40 7 -52 8 -16 1 -22 11 -30 54 l-10 52 51 22 c43 18 47 22 30 29
-24 10 -40 10 -82 0z"/>
</g>
</svg>
