<svg width="15" height="9" viewBox="0 0 15 9" fill="none" xmlns="http://www.w3.org/2000/svg">
<path d="M7.42313 8.81259L13.8432 2.04517C13.9504 1.93225 14.0105 1.78196 14.011 1.62546C14.0115 1.46897 13.9525 1.31828 13.8461 1.20465L13.8388 1.19731C13.7873 1.14204 13.7251 1.09795 13.6561 1.06774C13.5871 1.03752 13.5128 1.02181 13.4376 1.02156C13.3625 1.02131 13.288 1.03652 13.2189 1.06628C13.1497 1.09603 13.0872 1.1397 13.0353 1.19463L6.98995 7.56739L0.989736 1.15441C0.938146 1.09914 0.875972 1.05505 0.806998 1.02484C0.738024 0.994624 0.663691 0.978913 0.58852 0.978663C0.513349 0.978412 0.438912 0.993625 0.369738 1.02338C0.300563 1.05313 0.238097 1.0968 0.186139 1.15173L0.178886 1.15902C0.0717091 1.27193 0.0116281 1.42223 0.0111056 1.57872C0.0105831 1.73522 0.0696592 1.88591 0.17608 1.99954L6.55086 8.80968C6.60692 8.86957 6.67443 8.91732 6.74929 8.95005C6.82415 8.98278 6.90481 8.9998 6.98637 9.00007C7.06793 9.00034 7.1487 8.98386 7.22377 8.95164C7.29885 8.91941 7.36667 8.8721 7.42313 8.81259Z" fill="black"/>
</svg>
