<svg width="16" height="17" viewBox="0 0 16 17" fill="none" xmlns="http://www.w3.org/2000/svg">
<path d="M7.56386 4.43894L1.16638 11.2277C1.05958 11.341 1 11.4915 1 11.648C1 11.8045 1.05958 11.955 1.16638 12.0683L1.17361 12.0756C1.22538 12.1307 1.2877 12.1746 1.35677 12.2046C1.42585 12.2345 1.50024 12.25 1.57541 12.25C1.65058 12.25 1.72496 12.2345 1.79404 12.2046C1.86311 12.1746 1.92543 12.1307 1.97721 12.0756L8.0012 5.68268L14.0228 12.0756C14.0746 12.1307 14.1369 12.1746 14.206 12.2046C14.275 12.2345 14.3494 12.25 14.4246 12.25C14.4998 12.25 14.5741 12.2345 14.6432 12.2046C14.7123 12.1746 14.7746 12.1307 14.8264 12.0756L14.8336 12.0683C14.9404 11.955 15 11.8045 15 11.648C15 11.4915 14.9404 11.341 14.8336 11.2277L8.43614 4.43894C8.37988 4.37923 8.31221 4.3317 8.23724 4.29922C8.16227 4.26675 8.08156 4.25 8 4.25C7.91844 4.25 7.83773 4.26675 7.76276 4.29922C7.68779 4.3317 7.62012 4.37923 7.56386 4.43894Z" fill="black"/>
</svg>
