<svg width="46" height="45" viewBox="0 0 46 45" fill="none" xmlns="http://www.w3.org/2000/svg">
<path d="M16.248 22.493C21.2186 22.493 25.248 18.4651 25.248 13.4965C25.248 8.52786 21.2186 4.5 16.248 4.5C11.2775 4.5 7.24805 8.52786 7.24805 13.4965C7.24805 18.4651 11.2775 22.493 16.248 22.493Z" fill="white"/>
<path d="M29.748 13.4947C29.748 15.041 29.4756 16.5258 28.9922 17.9139C29.2471 17.9315 29.4932 17.993 29.748 17.993C34.7227 17.993 38.7481 13.9692 38.7481 8.99649C38.7481 4.02382 34.7227 0 29.748 0C27.4541 0 25.3799 0.88735 23.7891 2.30184C27.3838 4.73546 29.748 8.83835 29.748 13.4947ZM16.248 26.9895C4.99805 26.9895 0.498047 29.2386 0.498047 35.9859V45H31.9981V35.9859C31.9981 29.1947 27.4981 26.9895 16.248 26.9895Z" fill="white"/>
<path d="M29.751 22.4922C28.4766 22.4922 27.2988 22.5273 26.1914 22.5888C25.9893 22.8085 25.7871 23.0193 25.5762 23.2214C31.1748 24.4075 36.4922 27.5703 36.4922 35.9869V40.5027H45.501V31.4887C45.501 24.6974 41.001 22.4922 29.751 22.4922Z" fill="white"/>
</svg>
