<svg width="46" height="45" viewBox="0 0 46 45" fill="none" xmlns="http://www.w3.org/2000/svg">
<path d="M21.393 34.752C17.6965 33.502 14.9644 28.502 14.9644 22.502C14.9644 16.502 17.6965 11.502 21.393 10.252V0.00195312H8.53577C4.03574 0.00195312 0.5 5.50195 0.5 12.502H8.53577C9.50006 12.502 10.1429 13.502 10.1429 15.002L10.1429 30.002C10.1429 31.502 9.50006 32.502 8.53577 32.502H0.5C0.5 39.502 4.03574 45.002 8.53577 45.002H21.393V34.752Z" fill="white"/>
<path d="M21.3926 22.502C21.3926 25.752 22.6783 28.502 24.6069 29.502V15.502C22.6783 16.502 21.3926 19.252 21.3926 22.502Z" fill="white"/>
<path d="M24.6074 10.252C28.3039 11.502 31.036 16.502 31.036 22.502C31.036 28.502 28.3039 33.502 24.6074 34.752V45.002H37.4647C41.9647 45.002 45.5004 39.502 45.5004 32.502H37.4647C36.5004 32.502 35.8575 31.502 35.8575 30.002V15.002C35.8575 13.502 36.5004 12.502 37.4647 12.502H45.5004C45.5004 5.50195 41.9647 0.00195312 37.4647 0.00195312H24.6074V10.252Z" fill="white"/>
<path d="M0.5 17.502L0.5 27.502H6.92862L6.92862 17.502H0.5Z" fill="white"/>
<path d="M27.8237 22.502C27.8237 19.252 26.538 16.502 24.6094 15.502V29.502C26.538 28.502 27.8237 25.752 27.8237 22.502Z" fill="white"/>
<path d="M39.0703 17.502V27.502H45.4989V17.502H39.0703Z" fill="white"/>
</svg>
