<svg width="60" height="60" viewBox="0 0 60 60" fill="none" xmlns="http://www.w3.org/2000/svg">
<path d="M15 50.267C15 40.8095 26.25 42.702 26.25 38.9195C26.3757 37.5763 26.0117 36.2329 25.225 35.137C24.3278 34.2863 23.6211 33.2552 23.1514 32.1115C22.6817 30.9679 22.4597 29.7376 22.5 28.502C22.3779 26.3828 23.0973 24.301 24.5017 22.7094C25.9062 21.1177 27.8821 20.1447 30 20.002C32.1179 20.1447 34.0938 21.1177 35.4983 22.7094C36.9027 24.301 37.6221 26.3828 37.5 28.502C37.545 29.7413 37.3214 30.9757 36.8446 32.1205C36.3677 33.2653 35.6489 34.2935 34.7375 35.1345C33.9825 36.2448 33.6337 37.5817 33.75 38.9195C33.75 42.702 45 40.812 45 50.2695C45 50.2695 42.0125 52.5045 30 52.5045C17.9875 52.5045 15 50.267 15 50.267Z" stroke="white" stroke-width="3.75" stroke-miterlimit="10"/>
<path d="M13.715 39.9195C12.2925 39.8545 11.0375 39.757 9.935 39.6345C7.34721 39.5831 4.80491 38.9445 2.5 37.767C2.5 28.3095 13.75 30.202 13.75 26.4195C13.8757 25.0763 13.5117 23.7329 12.725 22.637C11.8278 21.7863 11.1211 20.7552 10.6514 19.6115C10.1817 18.4679 9.95968 17.2376 10 16.002C9.87793 13.8828 10.5973 11.801 12.0017 10.2094C13.4062 8.61767 15.3821 7.6447 17.5 7.50195C19.6179 7.6447 21.5938 8.61767 22.9983 10.2094C24.4027 11.801 25.1221 13.8828 25 16.002" stroke="white" stroke-width="3.75" stroke-miterlimit="10"/>
<path d="M46.2827 39.9195C47.7052 39.8545 48.9602 39.757 50.0627 39.6345C52.6505 39.5831 55.1928 38.9445 57.4977 37.767C57.4977 28.3095 46.2477 30.202 46.2477 26.4195C46.122 25.0763 46.486 23.7329 47.2727 22.637C48.1699 21.7863 48.8766 20.7552 49.3463 19.6115C49.816 18.4679 50.038 17.2376 49.9977 16.002C50.1198 13.8828 49.4004 11.801 47.996 10.2094C46.5916 8.61767 44.6156 7.6447 42.4977 7.50195C40.3798 7.6447 38.4039 8.61767 36.9994 10.2094C35.595 11.801 34.8756 13.8828 34.9977 16.002" stroke="white" stroke-width="3.75" stroke-miterlimit="10"/>
</svg>
