<svg version="1.1" xmlns="http://www.w3.org/2000/svg" xmlns:xlink="http://www.w3.org/1999/xlink" width="46" height="45" viewBox="0,0,256,250.42188"><g fill="#000000" fill-rule="nonzero" stroke="none" stroke-width="1" stroke-linecap="butt" stroke-linejoin="miter" stroke-miterlimit="10" stroke-dasharray="" stroke-dashoffset="0" font-family="none" font-weight="none" font-size="none" text-anchor="none" style="mix-blend-mode: normal"><g transform="translate(0.00003,-0.01745) scale(5.56522,5.56522)"><path d="M23,45.002c4.4501,0 8.8002,-1.3196 12.5003,-3.792c3.7001,-2.4723 6.584,-5.9863 8.287,-10.0977c1.7029,-4.1113 2.1485,-8.6353 1.2804,-12.9999c-0.8682,-4.3645 -3.0111,-8.37366 -6.1578,-11.52034c-3.1467,-3.14668 -7.1558,-5.2896 -11.5204,-6.15777c-4.3645,-0.86817 -8.8885,-0.42259 -12.9999,1.28038c-4.1113,1.70297 -7.62534,4.58686 -10.09767,8.28693c-2.47233,3.7001 -3.79193,8.0503 -3.79193,12.5004c0,5.9673 2.37053,11.6903 6.5901,15.9099c2.08931,2.0893 4.5697,3.7466 7.2995,4.8773c2.7298,1.1308 5.6557,1.7128 8.6104,1.7128zM23,40.502c-0.6675,0 -1.32,-0.198 -1.8751,-0.5688c-0.555,-0.3709 -0.9876,-0.898 -1.243,-1.5147c-0.2554,-0.6167 -0.3223,-1.2953 -0.1921,-1.95c0.1303,-0.6547 0.4517,-1.256 0.9237,-1.728c0.472,-0.472 1.0734,-0.7935 1.7281,-0.9237c0.6546,-0.1302 1.3332,-0.0634 1.9499,0.1921c0.6167,0.2554 1.1439,0.688 1.5147,1.243c0.3709,0.555 0.5688,1.2075 0.5688,1.8751c0,0.8951 -0.3556,1.7535 -0.9885,2.3864c-0.633,0.633 -1.4914,0.9886 -2.3865,0.9886zM14,15.7385c-0.0332,-1.7287 0.4441,-3.4287 1.3722,-4.8874c0.9281,-1.45879 2.2657,-2.61148 3.8455,-3.31389c1.401,-0.62567 2.9369,-0.8885 4.4662,-0.76424c1.5292,0.12426 3.0026,0.6316 4.2841,1.47524c1.1817,0.78239 2.1619,1.83279 2.8609,3.06569c0.699,1.2329 1.0969,2.6134 1.1614,4.0292c0.0644,1.4158 -0.2064,2.8268 -0.7904,4.1181c-0.584,1.2913 -1.4647,2.4265 -2.5704,3.313c-1.5507,1.195 -2.666,2.8661 -3.1748,4.7565c-0.1402,0.58 -0.5051,1.0806 -1.0144,1.3916c-0.5093,0.311 -1.1213,0.4069 -1.7013,0.2667c-0.58,-0.1403 -1.0806,-0.5052 -1.3916,-1.0145c-0.311,-0.5093 -0.4069,-1.1213 -0.2667,-1.7013c0.7324,-2.8578 2.3947,-5.3908 4.725,-7.2c0.5539,-0.443 0.9952,-1.0107 1.288,-1.6567c0.2927,-0.646 0.4286,-1.3521 0.3966,-2.0606c-0.032,-0.7085 -0.2311,-1.3995 -0.5809,-2.0164c-0.3499,-0.617 -0.8406,-1.1425 -1.4322,-1.5338c-0.6627,-0.4338 -1.4255,-0.6905 -2.2157,-0.7456c-0.7901,-0.0552 -1.5812,0.0931 -2.2978,0.4306c-0.7598,0.3637 -1.3979,0.9398 -1.8371,1.6585c-0.4393,0.7188 -0.6608,1.5495 -0.6379,2.3915c-0.0387,0.5679 -0.2913,1.1 -0.7068,1.4891c-0.4155,0.3891 -0.9631,0.6062 -1.5323,0.6076c-0.5692,0.0015 -1.1178,-0.2129 -1.5353,-0.5999c-0.4174,-0.387 -0.6727,-0.9178 -0.7143,-1.4855z"></path></g></g></svg>