<svg version="1.1" xmlns="http://www.w3.org/2000/svg" xmlns:xlink="http://www.w3.org/1999/xlink" width="46" height="45" viewBox="0,0,256,250.42188"><g fill="#000000" fill-rule="evenodd" stroke="none" stroke-width="1" stroke-linecap="butt" stroke-linejoin="miter" stroke-miterlimit="10" stroke-dasharray="" stroke-dashoffset="0" font-family="none" font-weight="none" font-size="none" text-anchor="none" style="mix-blend-mode: normal"><g transform="translate(0,-0.00645) scale(5.56522,5.56522)"><path d="M5,0h36c2.475,0 4.4775,2.53125 4.4775,5.625l0.0225,33.75c0,3.0938 -2.025,5.625 -4.5,5.625h-36c-2.475,0 -4.5,-2.5312 -4.5,-5.625v-33.75c0,-3.09375 2.025,-5.625 4.5,-5.625zM16.25,33.75c0,3.1066 2.5184,5.625 5.625,5.625h13.5c3.1066,0 5.625,-2.5184 5.625,-5.625c0,-3.1066 -2.5184,-5.625 -5.625,-5.625h-13.5c-3.1066,0 -5.625,2.5184 -5.625,5.625zM16.25,19.6875c0,3.1066 2.5184,5.625 5.625,5.625h13.5c3.1066,0 5.625,-2.5184 5.625,-5.625c0,-3.1066 -2.5184,-5.625 -5.625,-5.625h-13.5c-3.1066,0 -5.625,2.5184 -5.625,5.625zM5,34.875c0,2.4853 2.01472,4.5 4.5,4.5c2.4853,0 4.5,-2.0147 4.5,-4.5v-16.3125c0,-2.4853 -2.0147,-4.5 -4.5,-4.5c-2.48528,0 -4.5,2.0147 -4.5,4.5z"></path></g></g></svg>