<svg version="1.1" xmlns="http://www.w3.org/2000/svg" xmlns:xlink="http://www.w3.org/1999/xlink" width="46" height="45" viewBox="0,0,256,250.42188"><g fill="#000000" fill-rule="nonzero" stroke="none" stroke-width="1" stroke-linecap="butt" stroke-linejoin="miter" stroke-miterlimit="10" stroke-dasharray="" stroke-dashoffset="0" font-family="none" font-weight="none" font-size="none" text-anchor="none" style="mix-blend-mode: normal"><g transform="translate(-0.0046,-0.01035) scale(5.56522,5.56522)"><path d="M45.4997,22.413c0,6.4953 -2.7309,12.3502 -7.1033,16.4706l-4.1054,-5.6727l4.1659,-12.871l6.6468,-2.168c0.2599,1.3737 0.396,2.7915 0.396,4.2411z"></path><path d="M29.7395,36.5312l4.1083,5.6762c-3.2173,1.7807 -6.9152,2.794 -10.8488,2.794c-3.9336,0 -7.6314,-1.0133 -10.8486,-2.794l4.108,-5.6762z"></path><path d="M0.50195,22.413c0,6.4952 2.73102,12.3501 7.10318,16.4706l4.10557,-5.6728l-4.16587,-12.8709l-6.64687,-2.168c-0.25996,1.3737 -0.39601,2.7914 -0.39601,4.2411z"></path><path d="M9.2827,14.9689l-6.64793,-2.1684c3.21655,-6.85657 9.76773,-11.82573 17.55453,-12.8005v7.01417z"></path><path d="M25.8145,7.01417v-7.01417c7.7867,0.97475 14.3379,5.94391 17.5546,12.8005l-6.648,2.1684z"></path><path d="M13.0801,19.1758l9.9189,-7.2344l9.9189,7.2344l-3.7887,11.7056h-12.2604z"></path></g></g></svg>