<svg version="1.1" xmlns="http://www.w3.org/2000/svg" xmlns:xlink="http://www.w3.org/1999/xlink" width="46" height="45" viewBox="0,0,256,250.42188"><g fill="#000000" fill-rule="nonzero" stroke="none" stroke-width="1" stroke-linecap="butt" stroke-linejoin="miter" stroke-miterlimit="10" stroke-dasharray="" stroke-dashoffset="0" font-family="none" font-weight="none" font-size="none" text-anchor="none" style="mix-blend-mode: normal"><g transform="translate(-0.00516,-0.02246) scale(5.56522,5.56522)"><path d="M43.8927,0.00195h-6.1224h-19.898h-6.1225c-0.8877,0 -1.6072,0.97042 -1.6072,2.16749v7.53427h1.6072h1.6071h0.8968h2.8296c1.1045,-1.42274 1.8983,-3.27931 2.2269,-5.36679h17.0222c0.6318,4.01138 2.9787,7.17658 5.9532,8.02868v10.5711c-2.9745,0.8517 -5.3215,4.0172 -5.9532,8.0286h-1.5467v4.335h2.9846h6.1224c0.8876,0 1.6072,-0.9703 1.6072,-2.1675v-8.2569v-14.4498v-8.25666c0,-1.19718 -0.7196,-2.16749 -1.6072,-2.16749z"></path><path d="M29.9665,14.0371h-16.6074h-3.2144h-8.03557c-0.88761,0 -1.60718,0.9704 -1.60718,2.1674v6.5023h31.07175v-6.5023c0,-1.197 -0.7196,-2.1674 -1.6072,-2.1674z"></path><path d="M0.50195,27.0449v15.7914c0,1.197 0.71957,2.1675 1.60718,2.1675h27.85737c0.8876,0 1.6072,-0.9703 1.6072,-2.1675v-7.5344v-4.3349v-3.9221zM13.895,35.7147h-5.35727c-0.88761,0 -1.60717,-0.9704 -1.60717,-2.1674c0,-1.1971 0.71956,-2.1675 1.60717,-2.1675h5.35727c0.8876,0 1.6072,0.9704 1.6072,2.1675c-0.0001,1.197 -0.7196,2.1674 -1.6072,2.1674z"></path></g></g></svg>