<svg version="1.1" xmlns="http://www.w3.org/2000/svg" xmlns:xlink="http://www.w3.org/1999/xlink" width="46" height="45" viewBox="0,0,256,250.42188"><g fill="#000000" fill-rule="nonzero" stroke="none" stroke-width="1" stroke-linecap="butt" stroke-linejoin="miter" stroke-miterlimit="10" stroke-dasharray="" stroke-dashoffset="0" font-family="none" font-weight="none" font-size="none" text-anchor="none" style="mix-blend-mode: normal"><g transform="translate(-0.00111,-0.01745) scale(5.56522,5.56522)"><path d="M21.393,34.752c-3.6965,-1.25 -6.4286,-6.25 -6.4286,-12.25c0,-6 2.7321,-11 6.4286,-12.25v-10.25005h-12.85723c-4.50003,0 -8.03577,5.5 -8.03577,12.50005h8.03577c0.96429,0 1.60713,1 1.60713,2.5v15c0,1.5 -0.64284,2.5 -1.60713,2.5h-8.03577c0,7 3.53574,12.5 8.03577,12.5h12.85723z"></path><path d="M21.3926,22.502c0,3.25 1.2857,6 3.2143,7v-14c-1.9286,1 -3.2143,3.75 -3.2143,7z"></path><path d="M24.6074,10.252c3.6965,1.25 6.4286,6.25 6.4286,12.25c0,6 -2.7321,11 -6.4286,12.25v10.25h12.8573c4.5,0 8.0357,-5.5 8.0357,-12.5h-8.0357c-0.9643,0 -1.6072,-1 -1.6072,-2.5v-15c0,-1.5 0.6429,-2.5 1.6072,-2.5h8.0357c0,-7.00005 -3.5357,-12.50005 -8.0357,-12.50005h-12.8573z"></path><path d="M0.5,17.502v10h6.42862v-10z"></path><path d="M27.8237,22.502c0,-3.25 -1.2857,-6 -3.2143,-7v14c1.9286,-1 3.2143,-3.75 3.2143,-7z"></path><path d="M39.0703,17.502v10h6.4286v-10z"></path></g></g></svg>