<svg version="1.1" xmlns="http://www.w3.org/2000/svg" xmlns:xlink="http://www.w3.org/1999/xlink" width="60" height="60" viewBox="0,0,256,256"><g fill="none" fill-rule="nonzero" stroke="#000000" stroke-width="3.75" stroke-linecap="butt" stroke-linejoin="miter" stroke-miterlimit="10" stroke-dasharray="" stroke-dashoffset="0" font-family="none" font-weight="none" font-size="none" text-anchor="none" style="mix-blend-mode: normal"><g transform="translate(0.00491,-0.01376) scale(4.26667,4.26667)"><path d="M15,50.267c0,-9.4575 11.25,-7.565 11.25,-11.3475c0.1257,-1.3432 -0.2383,-2.6866 -1.025,-3.7825c-0.8972,-0.8507 -1.6039,-1.8818 -2.0736,-3.0255c-0.4697,-1.1436 -0.6917,-2.3739 -0.6514,-3.6095c-0.1221,-2.1192 0.5973,-4.201 2.0017,-5.7926c1.4045,-1.5917 3.3804,-2.5647 5.4983,-2.7074c2.1179,0.1427 4.0938,1.1157 5.4983,2.7074c1.4044,1.5916 2.1238,3.6734 2.0017,5.7926c0.045,1.2393 -0.1786,2.4737 -0.6554,3.6185c-0.4769,1.1448 -1.1957,2.173 -2.1071,3.014c-0.755,1.1103 -1.1038,2.4472 -0.9875,3.785c0,3.7825 11.25,1.8925 11.25,11.35c0,0 -2.9875,2.235 -15,2.235c-12.0125,0 -15,-2.2375 -15,-2.2375z"></path><path d="M13.715,39.9195c-1.4225,-0.065 -2.6775,-0.1625 -3.78,-0.285c-2.58779,-0.0514 -5.13009,-0.69 -7.435,-1.8675c0,-9.4575 11.25,-7.565 11.25,-11.3475c0.1257,-1.3432 -0.2383,-2.6866 -1.025,-3.7825c-0.8972,-0.8507 -1.6039,-1.8818 -2.0736,-3.0255c-0.4697,-1.1436 -0.69172,-2.3739 -0.6514,-3.6095c-0.12207,-2.1192 0.5973,-4.201 2.0017,-5.7926c1.4045,-1.59173 3.3804,-2.5647 5.4983,-2.70745c2.1179,0.14275 4.0938,1.11572 5.4983,2.70745c1.4044,1.5916 2.1238,3.6734 2.0017,5.7926"></path><path d="M46.2827,39.9195c1.4225,-0.065 2.6775,-0.1625 3.78,-0.285c2.5878,-0.0514 5.1301,-0.69 7.435,-1.8675c0,-9.4575 -11.25,-7.565 -11.25,-11.3475c-0.1257,-1.3432 0.2383,-2.6866 1.025,-3.7825c0.8972,-0.8507 1.6039,-1.8818 2.0736,-3.0255c0.4697,-1.1436 0.6917,-2.3739 0.6514,-3.6095c0.1221,-2.1192 -0.5973,-4.201 -2.0017,-5.7926c-1.4044,-1.59173 -3.3804,-2.5647 -5.4983,-2.70745c-2.1179,0.14275 -4.0938,1.11572 -5.4983,2.70745c-1.4044,1.5916 -2.1238,3.6734 -2.0017,5.7926"></path></g></g></svg>