<svg version="1.1" xmlns="http://www.w3.org/2000/svg" xmlns:xlink="http://www.w3.org/1999/xlink" width="46" height="45" viewBox="0,0,256,250.42188"><g fill="#000000" fill-rule="nonzero" stroke="none" stroke-width="1" stroke-linecap="butt" stroke-linejoin="miter" stroke-miterlimit="10" stroke-dasharray="" stroke-dashoffset="0" font-family="none" font-weight="none" font-size="none" text-anchor="none" style="mix-blend-mode: normal"><g transform="translate(0.00265,-0.00645) scale(5.56522,5.56522)"><path d="M16.248,22.493c4.9706,0 9,-4.0279 9,-8.9965c0,-4.96864 -4.0294,-8.9965 -9,-8.9965c-4.9705,0 -8.99995,4.02786 -8.99995,8.9965c0,4.9686 4.02945,8.9965 8.99995,8.9965z"></path><path d="M29.748,13.4947c0,1.5463 -0.2724,3.0311 -0.7558,4.4192c0.2549,0.0176 0.501,0.0791 0.7558,0.0791c4.9747,0 9.0001,-4.0238 9.0001,-8.99651c0,-4.97267 -4.0254,-8.99649 -9.0001,-8.99649c-2.2939,0 -4.3681,0.88735 -5.9589,2.30184c3.5947,2.43362 5.9589,6.53651 5.9589,11.19286zM16.248,26.9895c-11.24995,0 -15.74995,2.2491 -15.74995,8.9964v9.0141h31.50005v-9.0141c0,-6.7912 -4.5,-8.9964 -15.7501,-8.9964z"></path><path d="M29.751,22.4922c-1.2744,0 -2.4522,0.0351 -3.5596,0.0966c-0.2021,0.2197 -0.4043,0.4305 -0.6152,0.6326c5.5986,1.1861 10.916,4.3489 10.916,12.7655v4.5158h9.0088v-9.014c0,-6.7913 -4.5,-8.9965 -15.75,-8.9965z"></path></g></g></svg>