<svg width="46" height="45" viewBox="0 0 46 45" fill="none" xmlns="http://www.w3.org/2000/svg">
<path fill-rule="evenodd" clip-rule="evenodd" d="M5 0H41C43.475 0 45.4775 2.53125 45.4775 5.625L45.5 39.375C45.5 42.4688 43.475 45 41 45H5C2.525 45 0.5 42.4688 0.5 39.375V5.625C0.5 2.53125 2.525 0 5 0ZM16.25 33.75C16.25 36.8566 18.7684 39.375 21.875 39.375H35.375C38.4816 39.375 41 36.8566 41 33.75C41 30.6434 38.4816 28.125 35.375 28.125H21.875C18.7684 28.125 16.25 30.6434 16.25 33.75ZM16.25 19.6875C16.25 22.7941 18.7684 25.3125 21.875 25.3125H35.375C38.4816 25.3125 41 22.7941 41 19.6875C41 16.5809 38.4816 14.0625 35.375 14.0625H21.875C18.7684 14.0625 16.25 16.5809 16.25 19.6875ZM5 34.875C5 37.3603 7.01472 39.375 9.5 39.375C11.9853 39.375 14 37.3603 14 34.875V18.5625C14 16.0772 11.9853 14.0625 9.5 14.0625C7.01472 14.0625 5 16.0772 5 18.5625V34.875Z" fill="white"/>
</svg>
