<svg width="46" height="45" viewBox="0 0 46 45" fill="none" xmlns="http://www.w3.org/2000/svg">
<path d="M45.4988 22.413C45.4988 28.9083 42.7678 34.7632 38.3955 38.8836L34.29 33.2109L38.4559 20.3399L45.1028 18.1719C45.3626 19.5456 45.4988 20.9634 45.4988 22.413Z" fill="white"/>
<path d="M29.7385 36.5312L33.8468 42.2074C30.6295 43.9881 26.9317 45.0014 22.9981 45.0014C19.0644 45.0014 15.3666 43.9881 12.1494 42.2074L16.2574 36.5312H29.7385Z" fill="white"/>
<path d="M0.500977 22.413C0.500977 28.9082 3.23199 34.7631 7.60416 38.8836L11.7098 33.2108L7.54386 20.3399L0.896982 18.1719C0.637017 19.5456 0.500977 20.9633 0.500977 22.413Z" fill="white"/>
<path d="M9.28173 14.9689L2.63379 12.8005C5.85034 5.94393 12.4015 0.974772 20.1883 0V7.01417L9.28173 14.9689Z" fill="white"/>
<path d="M25.8135 7.01417V0C33.6002 0.974752 40.1514 5.94391 43.3681 12.8005L36.7202 14.9689L25.8135 7.01417Z" fill="white"/>
<path d="M13.0791 19.1758L22.998 11.9414L32.917 19.1758L29.1282 30.8814H16.8678L13.0791 19.1758Z" fill="white"/>
</svg>
