<svg width="46" height="45" viewBox="0 0 46 45" fill="none" xmlns="http://www.w3.org/2000/svg">
<path d="M23 45.002C27.4501 45.002 31.8002 43.6824 35.5003 41.21C39.2004 38.7377 42.0843 35.2237 43.7873 31.1123C45.4902 27.001 45.9358 22.477 45.0677 18.1124C44.1995 13.7479 42.0566 9.73874 38.9099 6.59206C35.7632 3.44538 31.7541 1.30246 27.3895 0.434294C23.025 -0.433873 18.501 0.011702 14.3896 1.71467C10.2783 3.41764 6.76426 6.30153 4.29193 10.0016C1.8196 13.7017 0.5 18.0519 0.5 22.502C0.5 28.4693 2.87053 34.1923 7.0901 38.4119C9.17941 40.5012 11.6598 42.1585 14.3896 43.2892C17.1194 44.42 20.0453 45.002 23 45.002ZM23 40.502C22.3325 40.502 21.68 40.304 21.1249 39.9332C20.5699 39.5623 20.1373 39.0352 19.8819 38.4185C19.6265 37.8018 19.5596 37.1232 19.6898 36.4685C19.8201 35.8138 20.1415 35.2125 20.6135 34.7405C21.0855 34.2685 21.6869 33.947 22.3416 33.8168C22.9962 33.6866 23.6748 33.7534 24.2915 34.0089C24.9082 34.2643 25.4354 34.6969 25.8062 35.2519C26.1771 35.8069 26.375 36.4594 26.375 37.127C26.375 38.0221 26.0194 38.8805 25.3865 39.5134C24.7535 40.1464 23.8951 40.502 23 40.502ZM14 15.7385C13.9668 14.0098 14.4441 12.3098 15.3722 10.8511C16.3003 9.39231 17.6379 8.23962 19.2177 7.53721C20.6187 6.91154 22.1546 6.64871 23.6839 6.77297C25.2131 6.89723 26.6865 7.40457 27.968 8.24821C29.1497 9.0306 30.1299 10.081 30.8289 11.3139C31.5279 12.5468 31.9258 13.9273 31.9903 15.3431C32.0547 16.7589 31.7839 18.1699 31.1999 19.4612C30.6159 20.7525 29.7352 21.8877 28.6295 22.7742C27.0788 23.9692 25.9635 25.6403 25.4547 27.5307C25.3145 28.1107 24.9496 28.6113 24.4403 28.9223C23.931 29.2333 23.319 29.3292 22.739 29.189C22.159 29.0487 21.6584 28.6838 21.3474 28.1745C21.0364 27.6652 20.9405 27.0532 21.0807 26.4732C21.8131 23.6154 23.4754 21.0824 25.8057 19.2732C26.3596 18.8302 26.8009 18.2625 27.0937 17.6165C27.3864 16.9705 27.5223 16.2644 27.4903 15.5559C27.4583 14.8474 27.2592 14.1564 26.9094 13.5395C26.5595 12.9225 26.0688 12.397 25.4772 12.0057C24.8145 11.5719 24.0517 11.3152 23.2615 11.2601C22.4714 11.2049 21.6803 11.3532 20.9637 11.6907C20.2039 12.0544 19.5658 12.6305 19.1266 13.3492C18.6873 14.068 18.4658 14.8987 18.4887 15.7407C18.45 16.3086 18.1974 16.8407 17.7819 17.2298C17.3664 17.6189 16.8188 17.836 16.2496 17.8374C15.6804 17.8389 15.1318 17.6245 14.7143 17.2375C14.2969 16.8505 14.0416 16.3197 14 15.752V15.7385Z" fill="white"/>
</svg>
