<svg width="46" height="45" viewBox="0 0 46 45" fill="none" xmlns="http://www.w3.org/2000/svg">
<path d="M43.8917 0.00195312H37.7693H17.8713H11.7488C10.8612 0.00195312 10.1416 0.972378 10.1416 2.16944V9.70371H11.7488H13.3559H14.2527H17.0823C18.1868 8.28097 18.9806 6.4244 19.3092 4.33692H36.3314C36.9632 8.3483 39.3101 11.5135 42.2846 12.3656V22.9367C39.3101 23.7884 36.9631 26.9539 36.3314 30.9653H34.7847V35.3003H37.7693H43.8917C44.7793 35.3003 45.4989 34.33 45.4989 33.1328V24.8759V10.4261V2.16944C45.4989 0.972259 44.7793 0.00195312 43.8917 0.00195312Z" fill="white"/>
<path d="M29.9655 14.0371H13.3581H10.1438H2.10815C1.22054 14.0371 0.500977 15.0075 0.500977 16.2045V22.7068H31.5727V16.2045C31.5727 15.0075 30.8531 14.0371 29.9655 14.0371Z" fill="white"/>
<path d="M0.500977 27.0449V42.8363C0.500977 44.0333 1.22054 45.0038 2.10815 45.0038H29.9655C30.8531 45.0038 31.5727 44.0335 31.5727 42.8363V35.3019V30.967V27.0449H0.500977ZM13.8941 35.7147H8.53676C7.64915 35.7147 6.92958 34.7443 6.92958 33.5473C6.92958 32.3502 7.64915 31.3798 8.53676 31.3798H13.8941C14.7817 31.3798 15.5012 32.3502 15.5012 33.5473C15.5011 34.7443 14.7816 35.7147 13.8941 35.7147Z" fill="white"/>
</svg>
